<svg width="200" height="32" viewBox="0 0 200 32" fill="none" xmlns="http://www.w3.org/2000/svg">
<path d="M6.9839 30.7678L0.307617 2.10428H6.22726L10.5446 21.4655L15.218 5.843V2.10428H20.1139L25.633 21.51L30.0839 2.10428H35.959L29.3272 30.7678H23.6301L18.3781 12.4303L12.7255 30.7678H6.9839Z" fill="white"/>
<path d="M47.3445 31.2129C43.3981 31.2129 40.505 30.2634 38.6653 28.3643C36.8256 26.4356 35.9058 23.7206 35.9058 20.2193C35.9058 16.7179 36.8256 14.0177 38.6653 12.1187C40.5347 10.19 43.4277 9.22565 47.3445 9.22565C51.2909 9.22565 54.184 10.19 56.0237 12.1187C57.893 14.0177 58.8277 16.7179 58.8277 20.2193C58.8277 23.7206 57.9079 26.4356 56.0682 28.3643C54.2285 30.2634 51.3206 31.2129 47.3445 31.2129ZM47.3445 26.0944C49.2732 26.0944 50.653 25.6642 51.4838 24.8037C52.3146 23.9135 52.73 22.3854 52.73 20.2193C52.73 18.0532 52.3146 16.5399 51.4838 15.6794C50.653 14.7892 49.2732 14.3441 47.3445 14.3441C45.4455 14.3441 44.0805 14.7892 43.2497 15.6794C42.4189 16.5399 42.0035 18.0532 42.0035 20.2193C42.0035 22.3854 42.4189 23.9135 43.2497 24.8037C44.0805 25.6642 45.4455 26.0944 47.3445 26.0944Z" fill="white"/>
<path d="M68.8807 31.2129C66.8333 31.2129 65.3349 30.7381 64.3854 29.7886C63.4655 28.8391 63.0056 27.3258 63.0056 25.2487V0.769024H69.0143V24.7592C69.0143 25.501 69.1626 26.0202 69.4593 26.317C69.7561 26.584 70.1863 26.7175 70.7501 26.7175C71.5216 26.7175 72.2189 26.6137 72.842 26.406V30.5453C71.7144 30.9904 70.394 31.2129 68.8807 31.2129Z" fill="white"/>
<path d="M75.8105 30.7678V14.2996H72.8729V9.67074H75.8105V7.53433C75.8105 5.33857 76.4336 3.54339 77.6799 2.14879C78.9261 0.754187 80.7658 0.0568848 83.1989 0.0568848C84.1781 0.0568848 85.0535 0.131066 85.8249 0.279427C86.5964 0.427791 87.3086 0.635499 87.9613 0.90255V5.04185C87.5163 4.89349 87.086 4.7748 86.6706 4.68578C86.2552 4.59676 85.7953 4.55225 85.2908 4.55225C84.0149 4.55225 83.1099 4.78963 82.5758 5.26439C82.0714 5.70948 81.8192 6.49579 81.8192 7.62334V9.67074H87.1602L86.8932 14.2996H81.8192V30.7678H75.8105Z" fill="white"/>
<path d="M90.6805 30.7678V2.10428H98.8256L105.947 16.6586L113.024 2.10428H121.124V30.7678H112.757V16.436L108.172 25.8719H103.677L99.0482 16.436V30.7678H90.6805Z" fill="#EC0D35"/>
<path d="M136.765 31.2129C134.303 31.2129 132.122 30.8123 130.223 30.0112C128.353 29.1803 126.884 27.9489 125.816 26.317C124.778 24.685 124.258 22.6672 124.258 20.2638C124.258 16.9108 125.208 14.2403 127.107 12.2522C129.006 10.2345 131.84 9.22565 135.608 9.22565C139.05 9.22565 141.735 10.101 143.664 11.8517C145.623 13.6023 146.602 15.991 146.602 19.0175V22.7118H131.958C132.344 23.8393 133.101 24.6405 134.228 25.1152C135.356 25.59 136.884 25.8274 138.813 25.8274C140.029 25.8274 141.246 25.7235 142.462 25.5158C143.709 25.2784 144.703 25.0114 145.445 24.7146V29.7441C143.367 30.7233 140.474 31.2129 136.765 31.2129ZM131.958 18.1719H139.391V17.4152C139.391 16.5844 139.124 15.9019 138.59 15.3678C138.086 14.8337 137.181 14.5667 135.875 14.5667C134.421 14.5667 133.398 14.8782 132.804 15.5014C132.24 16.0948 131.958 16.985 131.958 18.1719Z" fill="#EC0D35"/>
<path d="M149.707 30.7678V9.67074H157.54L157.763 11.273C158.564 10.7389 159.617 10.2642 160.923 9.84877C162.258 9.43336 163.682 9.22565 165.196 9.22565C167.836 9.22565 169.765 9.87845 170.982 11.184C172.198 12.4896 172.807 14.5073 172.807 17.2372V30.7678H164.439V18.0829C164.439 17.1333 164.231 16.4509 163.816 16.0355C163.4 15.6201 162.673 15.4123 161.635 15.4123C161.012 15.4123 160.359 15.5607 159.677 15.8574C159.024 16.1542 158.49 16.5102 158.074 16.9256V30.7678H149.707Z" fill="#EC0D35"/>
<path d="M184.224 31.2129C181.761 31.2129 179.832 30.5156 178.438 29.121C177.043 27.7264 176.346 25.679 176.346 22.9788V9.67074H184.713V22.3112C184.713 24.1509 185.648 25.0707 187.517 25.0707C188.2 25.0707 188.867 24.9223 189.52 24.6256C190.173 24.3289 190.692 23.958 191.078 23.5129V9.67074H199.446V30.7678H191.612L191.39 29.1655C190.559 29.7589 189.535 30.2485 188.318 30.6343C187.132 31.02 185.767 31.2129 184.224 31.2129Z" fill="#EC0D35"/>
<path d="M47.7965 13.4339C44.4694 13.4339 41.7726 16.3128 41.7726 19.8647C41.7726 20.5761 41.881 21.2608 42.0809 21.9006C43.1344 21.2226 44.0754 20.7474 44.9029 20.4432C43.9649 20.6005 43.1607 21.1059 42.021 20.5553C42.8488 19.7776 44.3215 18.7111 45.6557 18.5482C46.3531 17.9428 47.4428 17.3169 48.008 17.504C48.808 16.7513 49.7916 15.7929 50.8448 15.1022C51.1247 15.5548 51.2941 16.1089 51.1745 16.7232C49.0658 17.2892 49.5558 20.8946 51.5278 18.6122C51.6944 18.9781 51.7747 19.359 51.7664 19.7728C50.9091 20.7203 50.0093 21.5381 49.0919 22.2349C49.1041 22.9069 48.9448 23.717 48.5934 24.6105C48.4455 24.9863 48.4011 25.6302 49.1936 26.1221C51.8472 25.4496 53.8211 22.9032 53.8211 19.8647C53.8211 16.3128 51.1236 13.4339 47.7965 13.4339ZM47.8834 18.0379C47.4154 18.1001 47.023 18.2913 46.6806 18.5692C46.9976 18.5682 47.3525 18.6499 47.6645 18.7416C47.8273 18.554 47.933 18.2229 47.8834 18.0379Z" fill="white"/>
</svg>
